<?xml version="1.0" encoding="iso-8859-1"?>

<!DOCTYPE svg PUBLIC "-//W3C//DTD SVG 1.1//EN" "http://www.w3.org/Graphics/SVG/1.1/DTD/svg11.dtd">
<!-- Uploaded to: SVG Repo, www.svgrepo.com, Generator: SVG Repo Mixer Tools -->
<svg height="800px" width="800px" version="1.1" id="_x36_" xmlns="http://www.w3.org/2000/svg" xmlns:xlink="http://www.w3.org/1999/xlink" 
	 viewBox="0 0 512 512"  xml:space="preserve">
<g>
	<g>
		<polygon style="fill:#83C476;" points="311.087,65.173 339.215,0 371.217,45.076 424.622,21.572 428.068,83.948 383.878,128.137 
					"/>
		<polygon style="fill:#77B932;" points="446.85,200.929 512,172.801 466.931,140.807 490.444,87.394 428.068,83.948 
			383.878,128.137 		"/>
	</g>
	<path style="fill:#F19259;" d="M385.086,126.93L20.649,491.366c-13.995-13.983-25.686-24.979-18.431-73.41
		c4.214-28.204,32.934-102.516,76.31-177.63c3.859-6.77,7.832-13.509,11.97-20.173c19.073-31.177,40.598-61.826,63.744-88.578
		c5.907-6.908,11.974-13.586,18.163-19.86c1.254-1.39,2.522-2.66,3.844-3.981c94.683-94.691,142.342-47.299,159.734-29.908
		L385.086,126.93z"/>
	<path style="fill:#F08234;" d="M404.281,335.767c-12.662,12.646-26.63,24.85-41.469,36.617
		c-6.999,5.563-14.259,11.041-21.656,16.375c-53.864,38.987-115.376,71.378-164.891,92.835c-9.445,4.157-18.447,7.809-26.867,11.156
		c-24.204,9.353-43.724,15.305-55.35,17.032c-48.384,7.221-59.609-4.623-73.398-18.415L385.086,126.93l50.853,50.853
		C454.469,196.497,495.93,244.117,404.281,335.767z"/>
	<g style="opacity:0.47;">
		<path style="fill:#9F7524;" d="M204.69,163.058c-5.227,5.227-13.196,5.769-17.766,1.215l-32.682-32.697
			c5.907-6.908,11.974-13.586,18.163-19.86l33.545,33.545C210.505,149.815,209.954,157.794,204.69,163.058z"/>
		<path style="fill:#9F7524;" d="M362.811,372.384c-6.999,5.563-14.259,11.041-21.656,16.375l-38.634-38.627
			c-4.608-4.592-4.057-12.57,1.169-17.804c2.636-2.636,5.929-4.081,9.147-4.31c3.277-0.206,6.403,0.803,8.703,3.103L362.811,372.384
			z"/>
		<path style="fill:#9F7524;" d="M132.747,278.472c-4.435,4.432-11.179,4.898-15.053,1.024l-39.166-39.17
			c3.859-6.77,7.832-13.509,11.97-20.173l43.269,43.273C137.637,267.293,137.182,274.032,132.747,278.472z"/>
		<path style="fill:#9F7524;" d="M162.48,453.137c-4.853,4.86-12.211,5.349-16.444,1.116l-53.657-53.658
			c-4.233-4.225-3.729-11.592,1.123-16.444l0,0c4.845-4.845,12.218-5.349,16.444-1.116l53.657,53.649
			C167.828,440.919,167.332,448.292,162.48,453.137L162.48,453.137z"/>
		<path style="fill:#9F7524;" d="M262.832,301.679c-4.852,4.86-12.218,5.357-16.451,1.116l-56.202-56.202
			c-4.233-4.225-3.744-11.592,1.116-16.444l0,0c4.852-4.852,12.21-5.356,16.444-1.123l56.209,56.209
			C268.181,289.468,267.685,296.834,262.832,301.679L262.832,301.679z"/>
		<path style="fill:#9F7524;" d="M397.022,254.364c-4.837,4.844-12.203,5.349-16.444,1.108l-33.224-33.217
			c-4.233-4.233-3.721-11.591,1.124-16.444l0,0c4.86-4.86,12.226-5.365,16.451-1.131l33.217,33.231
			C402.378,242.138,401.882,249.504,397.022,254.364L397.022,254.364z"/>
	</g>
</g>
</svg>