<?xml version="1.0" encoding="iso-8859-1"?>
<!-- Uploaded to: SVG Repo, www.svgrepo.com, Generator: SVG Repo Mixer Tools -->
<svg version="1.1" id="Layer_1" xmlns="http://www.w3.org/2000/svg" xmlns:xlink="http://www.w3.org/1999/xlink" 
	 viewBox="0 0 512 512" xml:space="preserve">
<rect x="353.103" y="150.069" style="fill:#963737;" width="17.655" height="185.379"/>
<circle style="fill:#FFCF65;" cx="361.931" cy="247.172" r="17.655"/>
<circle style="fill:#C83741;" cx="361.931" cy="344.276" r="17.655"/>
<path style="fill:#FF4B4B;" d="M345.869,414.897h32.125c5.455,0,9.604-4.898,8.707-10.279l-4.655-27.934
	c-1.419-8.513-8.785-14.753-17.415-14.753h-5.398c-8.63,0-15.996,6.24-17.415,14.753l-4.655,27.934
	C336.265,409.998,340.414,414.897,345.869,414.897z"/>
<rect x="141.241" y="150.069" style="fill:#963737;" width="17.655" height="185.379"/>
<circle style="fill:#FFCF65;" cx="150.069" cy="247.172" r="17.655"/>
<circle style="fill:#C83741;" cx="150.069" cy="344.276" r="17.655"/>
<path style="fill:#FF4B4B;" d="M166.131,414.897h-32.125c-5.455,0-9.604-4.898-8.707-10.279l4.655-27.934
	c1.419-8.513,8.785-14.753,17.415-14.753h5.398c8.63,0,15.996,6.24,17.415,14.753l4.655,27.934
	C175.735,409.998,171.586,414.897,166.131,414.897z"/>
<path style="fill:#963737;" d="M256,0c-4.879,0-8.828,3.953-8.828,8.828v423.724h17.655V8.828C264.828,3.953,260.879,0,256,0z"/>
<g>
	<path style="fill:#FFCF65;" d="M249.758,267.413L138.656,156.311c-3.447-3.447-3.447-9.037,0-12.484L249.758,32.725
		c3.447-3.447,9.037-3.447,12.484,0l111.102,111.102c3.447,3.447,3.447,9.037,0,12.484L262.242,267.413
		C258.795,270.861,253.206,270.861,249.758,267.413z"/>
	<circle style="fill:#FFCF65;" cx="256" cy="344.276" r="17.655"/>
</g>
<circle style="fill:#C83741;" cx="256" cy="441.379" r="17.655"/>
<g>
	<path style="fill:#FF4B4B;" d="M272.063,512h-32.125c-5.455,0-9.604-4.898-8.707-10.279l4.655-27.934
		c1.419-8.513,8.785-14.753,17.415-14.753h5.398c8.63,0,15.996,6.24,17.415,14.753l4.655,27.934
		C281.666,507.103,277.517,512,272.063,512z"/>
	<path style="fill:#FF4B4B;" d="M249.758,223.275l-66.964-66.964c-3.447-3.447-3.447-9.037,0-12.484l66.964-66.964
		c3.447-3.447,9.037-3.447,12.484,0l66.964,66.964c3.447,3.447,3.447,9.037,0,12.484l-66.964,66.964
		C258.795,226.723,253.206,226.723,249.758,223.275z"/>
</g>
</svg>