<?xml version="1.0" encoding="iso-8859-1"?>
<!-- Uploaded to: SVG Repo, www.svgrepo.com, Generator: SVG Repo Mixer Tools -->
<svg version="1.1" id="Layer_1" xmlns="http://www.w3.org/2000/svg" xmlns:xlink="http://www.w3.org/1999/xlink" 
	 viewBox="0 0 512 512" xml:space="preserve">
<g>
	<path style="fill:#FF6243;" d="M458.105,161.684c-26.348,0-48.812-16.897-57.155-40.421h3.261c11.162,0,20.211-9.049,20.211-20.211
		s-9.049-20.211-20.211-20.211c-33.432,0-60.632-27.201-60.632-60.632C343.579,9.049,334.53,0,323.368,0H256h-67.368
		c-6.279,0-11.888,2.863-15.596,7.354c-1.648,1.997-2.92,4.314-3.707,6.846c-0.59,1.9-0.908,3.918-0.908,6.011
		c0,33.432-27.199,60.632-60.632,60.632c-6.279,0-11.888,2.863-15.596,7.354c-1.648,1.997-2.92,4.314-3.707,6.846
		c-0.59,1.9-0.908,3.918-0.908,6.011c0,11.162,9.049,20.211,20.211,20.211h3.261c-0.521,1.47-1.098,2.914-1.727,4.33
		c-0.629,1.416-1.311,2.804-2.044,4.161c-0.732,1.357-1.514,2.683-2.344,3.975c-0.83,1.292-1.707,2.552-2.63,3.774
		c-0.923,1.223-1.89,2.41-2.901,3.56c-1.011,1.149-2.064,2.26-3.157,3.328c-3.827,3.743-8.146,6.985-12.85,9.616
		c-1.345,0.752-2.719,1.455-4.124,2.105c-2.808,1.3-5.733,2.392-8.753,3.255c-1.51,0.431-3.044,0.806-4.599,1.12
		c-3.887,0.786-7.91,1.198-12.027,1.198c-6.279,0-11.888,2.863-15.596,7.354c-1.648,1.997-2.92,4.314-3.707,6.846
		c-0.59,1.9-0.908,3.918-0.908,6.011c0,11.162,9.049,20.211,20.211,20.211h33.684H128h40.421h40.421H256h47.158h40.421H384h40.421
		h33.684c11.162,0,20.211-9.049,20.211-20.211S469.267,161.684,458.105,161.684z"/>
	<path style="fill:#FF6243;" d="M458.105,390.737h-6.737v-60.632c0-11.162-9.049-20.211-20.211-20.211h-6.737H384h-40.421h-40.421
		H256h-47.158h-40.421H128H87.579h-6.737c-6.279,0-11.888,2.863-15.596,7.354c-1.648,1.997-2.92,4.314-3.707,6.846
		c-0.59,1.9-0.908,3.918-0.908,6.011v60.632h-6.737c-6.279,0-11.888,2.863-15.596,7.354c-1.648,1.997-2.92,4.314-3.707,6.846
		c-0.59,1.9-0.908,3.918-0.908,6.011v80.842c0,11.162,9.049,20.211,20.211,20.211H256h202.105c11.162,0,20.211-9.049,20.211-20.211
		v-80.842C478.316,399.786,469.267,390.737,458.105,390.737z"/>
</g>
<g>
	<path style="fill:#B8002B;" d="M404.211,80.842c-33.432,0-60.632-27.201-60.632-60.632C343.579,9.049,334.53,0,323.368,0H256
		h-67.368c-11.162,0-20.211,9.049-20.211,20.211c0,33.432-27.199,60.632-60.632,60.632c-11.162,0-20.211,9.049-20.211,20.211
		s9.049,20.211,20.211,20.211h3.261h21.139h20.728H256h103.083h20.728h21.139h3.261c11.162,0,20.211-9.049,20.211-20.211
		S415.372,80.842,404.211,80.842z"/>
	<path style="fill:#B8002B;" d="M458.105,390.737h-6.737h-20.211h-20.211H256H101.053H80.842H60.632h-6.737
		c-11.162,0-20.211,9.049-20.211,20.211v80.842c0,11.162,9.049,20.211,20.211,20.211H256h202.105
		c11.162,0,20.211-9.049,20.211-20.211v-80.842C478.316,399.786,469.267,390.737,458.105,390.737z"/>
</g>
<path style="fill:#FF0C38;" d="M168.421,202.105h40.421H256v-80.842H152.917h-20.728H111.05
	c-8.343,23.524-30.808,40.421-57.155,40.421c-11.162,0-20.211,9.049-20.211,20.211s9.049,20.211,20.211,20.211h33.684H128H168.421z"
	/>
<path style="fill:#8B0023;" d="M152.917,121.263H256V0h-67.368c-11.162,0-20.211,9.049-20.211,20.211
	c0,33.432-27.199,60.632-60.632,60.632c-11.162,0-20.211,9.049-20.211,20.211s9.049,20.211,20.211,20.211h3.261h21.139H152.917z"/>
<path style="fill:#FF0C38;" d="M101.053,390.737H256v-80.842h-47.158h-40.421H128H87.579h-6.737
	c-11.162,0-20.211,9.049-20.211,20.211v60.632h20.211H101.053z"/>
<g>
	<rect x="87.579" y="202.105" style="fill:#8B0023;" width="40.421" height="107.789"/>
	<rect x="168.421" y="202.105" style="fill:#8B0023;" width="40.421" height="107.789"/>
</g>
<g>
	<rect x="303.158" y="202.105" style="fill:#B8002B;" width="40.421" height="107.789"/>
	<rect x="384" y="202.105" style="fill:#B8002B;" width="40.421" height="107.789"/>
</g>
<path style="fill:#8B0023;" d="M101.053,390.737H80.842H60.632h-6.737c-11.162,0-20.211,9.049-20.211,20.211v80.842
	c0,11.162,9.049,20.211,20.211,20.211H256V390.737H101.053z"/>
</svg>