<?xml version="1.0" encoding="iso-8859-1"?>
<!-- Uploaded to: SVG Repo, www.svgrepo.com, Generator: SVG Repo Mixer Tools -->
<svg version="1.1" id="Layer_1" xmlns="http://www.w3.org/2000/svg" xmlns:xlink="http://www.w3.org/1999/xlink" 
	 viewBox="0 0 495 495" xml:space="preserve">
<g>
	<rect x="134.18" y="105.55" style="fill:#FF3501;" width="226.642" height="40"/>
	<path style="fill:#5EAC24;" d="M247.5,211.1h174.4c4.916,0,9.58-1.086,13.778-3.017L416.18,145.55H247.5V211.1z"/>
	<path style="fill:#5EAC24;" d="M360.82,65.55c4.916,0,9.581-1.086,13.78-3.017L355.11,0H247.5v65.55H360.82z"/>
	<path style="fill:#6DC82A;" d="M247.5,211.1v-65.55H78.82l-19.499,62.533c4.198,1.931,8.863,3.017,13.778,3.017H247.5z"/>
	<path style="fill:#6DC82A;" d="M247.5,65.55V0H139.9l-19.499,62.534c4.198,1.931,8.863,3.016,13.778,3.016H247.5z"/>
	<polygon style="fill:#FF3501;" points="247.5,355 290.822,355 290.822,251.1 330.822,251.1 330.822,355 421.9,355 421.9,251.1 
		247.5,251.1 	"/>
	<polygon style="fill:#FF5023;" points="164.179,251.1 204.179,251.1 204.179,355 247.5,355 247.5,251.1 73.1,251.1 73.1,355 
		164.179,355 	"/>
	<rect x="164.179" y="251.1" style="fill:#FFEB99;" width="40" height="103.9"/>
	<rect x="290.822" y="251.1" style="fill:#FFDE55;" width="40" height="103.9"/>
	<rect x="247.5" y="425" style="fill:#FF3501;" width="247.5" height="70"/>
	<rect x="247.5" y="355" style="fill:#FF5023;" width="227.5" height="70"/>
	<rect y="425" style="fill:#FF5023;" width="247.5" height="70"/>
	<rect x="20" y="355" style="fill:#FF7956;" width="227.5" height="70"/>
	<path style="fill:#FFCD00;" d="M247.5,211.1v40h174.4c40.31,0,73.1-32.79,73.1-73.1h-40c0,13.334-7.932,24.845-19.322,30.083
		c-4.198,1.931-8.863,3.017-13.778,3.017H247.5z"/>
	<path style="fill:#FFCD00;" d="M247.5,65.55v40h113.32c40.311-0.001,73.1-32.791,73.1-73.1h-40c0,13.334-7.931,24.844-19.32,30.083
		c-4.199,1.932-8.864,3.017-13.78,3.017H247.5z"/>
	<path style="fill:#FFDE55;" d="M247.5,211.1H73.1c-4.916,0-9.58-1.086-13.778-3.017C47.932,202.845,40,191.334,40,178H0
		c0,40.31,32.79,73.1,73.1,73.1h174.4V211.1z"/>
	<path style="fill:#FFDE55;" d="M247.5,105.55v-40H134.18c-4.916,0-9.58-1.086-13.778-3.016
		c-11.389-5.238-19.321-16.749-19.321-30.084h-40c0,40.31,32.789,73.099,73.099,73.1C134.18,105.55,247.5,105.55,247.5,105.55z"/>
</g>
</svg>