<?xml version="1.0" ?>
<!DOCTYPE svg  PUBLIC '-//W3C//DTD SVG 1.1//EN'  'http://www.w3.org/Graphics/SVG/1.1/DTD/svg11.dtd'>
<!-- Uploaded to: SVG Repo, www.svgrepo.com, Generator: SVG Repo Mixer Tools -->
<svg width="800px" height="800px" viewBox="0 0 512 512" enable-background="new 0 0 512 512" id="Layer_1" version="1.1" xml:space="preserve" xmlns="http://www.w3.org/2000/svg" xmlns:xlink="http://www.w3.org/1999/xlink">
<g>
<g>
<path d="M324.627,153.942c0,32.632-20.85,60.4-49.96,70.69c-7.817,2.777-16.24,4.282-25.014,4.282    c-6.802,0-13.382-0.91-19.647-2.603c-31.875-8.633-55.326-37.766-55.326-72.37c0-41.407,33.566-74.974,74.973-74.974    S324.627,112.535,324.627,153.942z" fill="#F16259"/>
<path d="M249.653,238.915c-7.524,0-15.012-0.992-22.255-2.949c-36.93-10.002-62.718-43.73-62.718-82.024    c0-46.854,38.119-84.974,84.973-84.974c46.855,0,84.974,38.119,84.974,84.974c0,35.949-22.757,68.146-56.627,80.119    C268.939,237.28,259.396,238.915,249.653,238.915z M249.653,88.969c-35.826,0-64.973,29.147-64.973,64.974    c0,29.283,19.713,55.073,47.94,62.718c5.537,1.496,11.27,2.255,17.033,2.255c7.457,0,14.747-1.247,21.667-3.705    c25.909-9.159,43.308-33.778,43.308-61.268C314.627,118.116,285.479,88.969,249.653,88.969z" fill="#444B54"/>
</g>
<g>
<rect fill="#D0C144" height="110.837" width="295.178" x="108.411" y="279.025"/>
<path d="M403.589,399.862H108.411c-5.523,0-10-4.477-10-10V279.025c0-5.523,4.477-10,10-10h295.178    c5.522,0,10,4.477,10,10v110.837C413.589,395.385,409.111,399.862,403.589,399.862z M118.411,379.862h275.178v-90.837H118.411    V379.862z" fill="#444B54"/>
</g>
<g>
<path d="M256.388,344.444H256c-5.523,0-10-4.477-10-10s4.477-10,10-10h0.388c5.523,0,10,4.477,10,10    S261.911,344.444,256.388,344.444z" fill="#444B54"/>
</g>
<g>
<path d="M403.589,399.862H108.411c-5.523,0-10-4.477-10-10V279.025c0-5.523,4.477-10,10-10h295.178    c5.522,0,10,4.477,10,10v110.837C413.589,395.385,409.111,399.862,403.589,399.862z M118.411,379.862h275.178v-90.837H118.411    V379.862z" fill="#444B54"/>
</g>
<g>
<path d="M108.411,443.031c-5.523,0-10-4.477-10-10v-43.169c0-5.523,4.477-10,10-10s10,4.477,10,10v43.169    C118.411,438.554,113.934,443.031,108.411,443.031z" fill="#444B54"/>
</g>
<g>
<path d="M403.589,443.031c-5.522,0-10-4.477-10-10v-43.169c0-5.523,4.478-10,10-10s10,4.477,10,10v43.169    C413.589,438.554,409.111,443.031,403.589,443.031z" fill="#444B54"/>
</g>
<g>
<path d="M215.231,145.081c-2.56,0-5.119-0.976-7.071-2.929c-3.905-3.905-3.905-10.237,0-14.142l14.778-14.777    c3.906-3.904,10.238-3.905,14.142,0c3.905,3.905,3.905,10.237,0,14.142l-14.778,14.777    C220.35,144.104,217.791,145.081,215.231,145.081z" fill="#444B54"/>
</g>
<g>
<path d="M222.815,180.666c-2.559,0-5.118-0.976-7.071-2.929c-3.905-3.905-3.906-10.237,0-14.142l46.084-46.085    c3.906-3.905,10.236-3.906,14.143,0c3.905,3.905,3.905,10.237,0,14.142l-46.084,46.085    C227.934,179.689,225.375,180.666,222.815,180.666z" fill="#444B54"/>
</g>
<g>
<path d="M249.653,238.915c-7.524,0-15.012-0.992-22.255-2.949c-36.93-10.002-62.718-43.73-62.718-82.024    c0-46.854,38.119-84.974,84.973-84.974c46.855,0,84.974,38.119,84.974,84.974c0,35.949-22.757,68.146-56.627,80.119    C268.939,237.28,259.396,238.915,249.653,238.915z M249.653,88.969c-35.826,0-64.973,29.147-64.973,64.974    c0,29.283,19.713,55.073,47.94,62.718c5.537,1.496,11.27,2.255,17.033,2.255c7.457,0,14.747-1.247,21.667-3.705    c25.909-9.159,43.308-33.778,43.308-61.268C314.627,118.116,285.479,88.969,249.653,88.969z" fill="#444B54"/>
</g>
<g>
<path d="M274.667,289.025h-44.661c-5.523,0-10-4.477-10-10v-52.713c0-3.112,1.449-6.047,3.92-7.94    c2.472-1.892,5.684-2.525,8.688-1.714c5.543,1.497,11.276,2.256,17.039,2.256c7.457,0,14.747-1.247,21.667-3.705    c3.061-1.088,6.46-0.62,9.115,1.253c2.654,1.874,4.232,4.92,4.232,8.169v54.393C284.667,284.548,280.189,289.025,274.667,289.025z     M240.006,269.025h24.661v-31.433c-8.06,1.439-16.438,1.71-24.661,0.777V269.025z" fill="#444B54"/>
</g>
<g>
<path d="M256.388,344.444H256c-5.523,0-10-4.477-10-10s4.477-10,10-10h0.388c5.523,0,10,4.477,10,10    S261.911,344.444,256.388,344.444z" fill="#444B54"/>
</g>
<g>
<path d="M108.411,443.031c-5.523,0-10-4.477-10-10v-43.169c0-5.523,4.477-10,10-10s10,4.477,10,10v43.169    C118.411,438.554,113.934,443.031,108.411,443.031z" fill="#444B54"/>
</g>
<g>
<path d="M403.589,443.031c-5.522,0-10-4.477-10-10v-43.169c0-5.523,4.478-10,10-10s10,4.477,10,10v43.169    C413.589,438.554,409.111,443.031,403.589,443.031z" fill="#444B54"/>
</g>
<g>
<path d="M215.231,145.081c-2.56,0-5.119-0.976-7.071-2.929c-3.905-3.905-3.905-10.237,0-14.142l14.778-14.777    c3.906-3.904,10.238-3.905,14.142,0c3.905,3.905,3.905,10.237,0,14.142l-14.778,14.777    C220.35,144.104,217.791,145.081,215.231,145.081z" fill="#444B54"/>
</g>
<g>
<path d="M222.815,180.666c-2.559,0-5.118-0.976-7.071-2.929c-3.905-3.905-3.906-10.237,0-14.142l46.084-46.085    c3.906-3.905,10.236-3.906,14.143,0c3.905,3.905,3.905,10.237,0,14.142l-46.084,46.085    C227.934,179.689,225.375,180.666,222.815,180.666z" fill="#444B54"/>
</g>
<g>
<path d="M274.667,289.025h-44.661c-5.523,0-10-4.477-10-10v-52.713c0-3.112,1.449-6.047,3.92-7.94    c2.472-1.892,5.684-2.525,8.688-1.714c5.543,1.497,11.276,2.256,17.039,2.256c7.457,0,14.747-1.247,21.667-3.705    c3.061-1.088,6.46-0.62,9.115,1.253c2.654,1.874,4.232,4.92,4.232,8.169v54.393C284.667,284.548,280.189,289.025,274.667,289.025z     M240.006,269.025h24.661v-31.433c-8.06,1.439-16.438,1.71-24.661,0.777V269.025z" fill="#444B54"/>
</g>
</g>
</svg>