<?xml version="1.0" encoding="iso-8859-1"?>
<!-- Uploaded to: SVG Repo, www.svgrepo.com, Generator: SVG Repo Mixer Tools -->
<svg height="800px" width="800px" version="1.1" id="Layer_1" xmlns="http://www.w3.org/2000/svg" xmlns:xlink="http://www.w3.org/1999/xlink" 
	 viewBox="0 0 512 512" xml:space="preserve">
<g>
	<path style="fill:#806749;" d="M426.667,380.322v25.003c0,11.782-9.552,21.333-21.333,21.333S384,417.106,384,405.325v-25.003
		c7.947-2.819,15.175-7.159,21.333-12.679C411.492,373.163,418.719,377.503,426.667,380.322z"/>
	<path style="fill:#806749;" d="M106.667,367.643c6.158,5.52,13.386,9.86,21.333,12.679v25.003c0,11.782-9.552,21.333-21.333,21.333
		s-21.333-9.552-21.333-21.333v-25.003C93.281,377.503,100.508,373.163,106.667,367.643z"/>
</g>
<path style="fill:#FFB655;" d="M366.362,85.342c33.253,0,60.305,24.131,60.305,53.791v63.639
	c-23.808,8.445-41.185,30.593-42.574,56.92c-6.704-2.389-13.912-3.701-21.426-3.701H256V85.342H366.362z"/>
<g>
	<path style="fill:#FF5023;" d="M124.331,341.325c2.368-6.677,3.669-13.855,3.669-21.333v-56.889c0-1.143-0.033-2.281-0.092-3.41
		c6.704-2.389,13.912-3.701,21.426-3.701H256v85.333v42.667H149.333c-7.479,0-14.656-1.301-21.333-3.669
		c-7.947-2.819-15.175-7.159-21.333-12.679C114.576,360.555,120.711,351.531,124.331,341.325z"/>
	<path style="fill:#FF5023;" d="M426.667,202.772c6.677-2.368,13.854-3.669,21.333-3.669c35.291,0,64,28.71,64,64v56.889
		c0,35.29-28.709,64-64,64c-7.479,0-14.656-1.301-21.333-3.669c-7.947-2.819-15.175-7.159-21.333-12.679
		c-7.908-7.088-14.044-16.112-17.664-26.318c-2.368-6.677-3.669-13.855-3.669-21.333v-56.889c0-1.143,0.033-2.281,0.092-3.41
		C385.482,233.365,402.859,211.217,426.667,202.772z"/>
</g>
<path style="fill:#FF6243;" d="M384.092,259.692c-0.06,1.129-0.092,2.267-0.092,3.41v56.889c0,7.478,1.301,14.656,3.669,21.333
	c3.62,10.206,9.755,19.23,17.664,26.318c-6.158,5.52-13.386,9.86-21.333,12.679c-6.677,2.368-13.854,3.669-21.333,3.669H256v-42.667
	v-85.333h106.667C370.18,255.991,377.389,257.304,384.092,259.692z"/>
<path style="fill:#EE8700;" d="M64,199.103c7.479,0,14.656,1.301,21.333,3.669v-63.639c0-29.66,27.055-53.791,60.308-53.791H256
	v170.65H149.333c-7.514,0-14.723,1.311-21.426,3.701c0.06,1.129,0.092,2.267,0.092,3.41v56.889c0,7.478-1.301,14.656-3.669,21.333
	c-3.62,10.206-9.755,19.23-17.664,26.318c-6.158,5.52-13.386,9.86-21.333,12.679c-6.677,2.368-13.854,3.669-21.333,3.669
	c-35.29,0-64-28.71-64-64v-56.889C0,227.813,28.71,199.103,64,199.103z"/>
</svg>