<?xml version="1.0" encoding="utf-8"?>
<!-- Uploaded to: SVG Repo, www.svgrepo.com, Generator: SVG Repo Mixer Tools -->
<svg width="800px" height="800px" viewBox="0 0 1024 1024" class="icon"  version="1.1" xmlns="http://www.w3.org/2000/svg"><path d="M951.808 317.44c3.072 2.048 5.12 5.12 5.12 9.728-1.536 56.832-4.608 114.176-6.144 171.008-1.536 55.296-6.656 113.152-39.424 159.744C859.136 732.16 763.904 784.896 675.84 798.72c-23.04 3.584-46.08 6.656-69.632 9.216 0 0.512 0 1.536-0.512 2.048-10.752 43.52-24.064 86.016-39.936 127.488-5.12 13.312-9.216 31.744-18.432 43.008-8.704 10.24-20.48 8.192-32.768 8.192-11.264-0.512-27.648 2.048-37.376-5.632-11.264-9.216-12.288-28.672-15.36-41.472-10.24-42.496-18.432-85.504-25.088-129.024-34.304-2.048-68.096-6.656-101.376-13.824-89.088-19.456-177.664-66.56-225.792-147.456-56.32-95.744-28.672-209.408-36.352-314.368-0.512-6.144 3.072-9.728 7.68-10.752 2.56-1.536 5.632-2.56 9.216-1.024 11.264 4.096 22.528 9.216 33.28 14.848 39.424-65.024 91.136-125.952 165.888-150.528 42.496-13.824 89.088-9.216 131.584-25.088 46.592-17.408 82.432-57.856 80.896-109.568-0.512-8.192 6.144-11.776 12.288-11.264 5.12-0.512 10.752 1.536 12.288 8.192 11.264 48.128 26.624 90.112 76.288 109.056 42.496 15.872 88.064 18.944 130.56 36.352 39.936 15.872 76.8 37.888 111.104 63.488 27.136 20.48 56.832 42.496 74.24 72.192 6.656-5.12 13.824-10.752 20.48-15.872 4.608-3.584 9.728-2.56 12.8 0.512z m-23.552 144.384c1.024-36.864 3.072-73.728 4.608-110.592-41.984 32.768-81.408 68.608-117.76 108.032-43.008 46.08-80.896 95.232-84.992 160.768-0.512 9.216-9.216 12.8-15.872 10.752-4.096 0.512-8.192-1.024-11.264-5.12-46.08-71.168-96.256-141.312-163.328-194.56 0 57.856-2.048 115.712-6.656 173.568-1.024 14.848-24.576 14.848-23.552 0 4.608-60.416 7.168-120.32 6.656-180.736-39.424 25.6-72.704 58.368-107.52 89.6-36.864 33.28-73.216 69.12-87.04 118.272-3.584 13.312-21.504 9.216-23.04-3.072-11.776-119.808-91.648-227.328-201.728-274.432 4.096 104.448-20.992 218.112 46.592 307.712 58.88 77.824 155.648 112.64 249.344 123.392 101.376 11.776 206.848 8.192 306.688-13.824 44.032-9.728 85.504-33.792 121.856-59.392 39.424-27.648 75.264-62.464 90.624-108.544 16.384-46.08 14.848-94.72 16.384-141.824z m-28.16-114.176c-20.992-37.888-64.512-67.072-99.84-89.6-38.912-25.088-80.896-45.056-125.952-55.808-41.472-9.728-86.016-14.848-120.32-42.496-17.92-14.848-29.184-34.304-37.376-55.296-22.528 57.344-87.04 87.552-149.504 94.72-51.2 6.144-96.256 16.384-137.728 49.152-35.328 28.16-61.952 64.512-84.992 102.4 86.528 50.688 149.504 136.192 171.52 234.496 17.92-32.256 44.032-59.392 71.68-84.992 41.472-37.888 82.432-77.824 131.072-106.496 3.072-3.072 7.68-3.584 12.288-0.512 74.24 53.76 129.536 124.928 179.2 200.192 10.24-53.76 39.936-97.28 77.312-138.752 34.816-38.4 72.192-74.24 112.64-107.008zM556.544 893.952c9.216-27.648 17.408-55.296 24.576-83.456-40.448 3.584-80.896 5.12-120.832 3.584 4.608 29.184 9.728 57.856 15.872 87.04 3.072 14.336 6.656 29.184 10.24 43.52 4.608 18.432 4.608 20.992 23.552 21.504 12.288 0.512 15.872 3.072 23.04-8.704 3.584-6.144 5.632-13.824 8.192-20.992 5.632-14.336 10.752-28.16 15.36-42.496z" fill="#66A771" /><path d="M932.352 351.232c-1.024 36.864-3.072 73.728-4.608 110.592-1.536 47.104 0 95.232-15.36 140.8-15.36 46.592-51.712 81.408-90.624 108.544-36.352 25.6-78.336 49.664-121.856 59.392-99.328 22.528-205.312 26.112-306.688 13.824-93.696-10.752-190.464-45.568-249.344-123.392-67.584-89.6-42.496-203.264-46.592-307.712 110.08 47.616 189.44 155.136 201.728 274.432 1.024 12.8 19.456 16.896 23.04 3.072 13.824-49.152 50.176-84.992 87.04-118.272 34.816-31.232 68.096-64 107.52-89.6 0.512 60.416-2.048 120.832-6.656 180.736-1.024 14.848 22.016 14.848 23.552 0 4.608-57.856 6.656-115.712 6.656-173.568 66.56 53.248 116.736 123.392 163.328 194.56 3.072 4.608 7.168 5.632 11.264 5.12 6.656 1.536 15.36-2.048 15.872-10.752 4.096-65.536 41.472-114.688 84.992-160.768 35.84-38.4 75.264-74.24 116.736-107.008z" fill="#056137" /><path d="M800.256 258.048c35.328 22.528 78.848 51.712 99.84 89.6-39.936 32.768-77.824 68.096-112.64 107.008-37.376 41.472-67.072 84.992-77.312 138.752-49.664-75.264-104.96-146.432-179.2-199.168-4.608-3.072-9.216-2.56-12.288 0.512-48.64 28.672-89.6 68.608-131.072 106.496-27.648 25.088-53.76 52.224-71.68 84.992-22.016-98.304-84.992-183.808-171.52-234.496 23.04-37.888 50.176-74.752 84.992-102.4 41.472-33.28 86.528-43.008 137.728-49.152 62.464-7.68 126.976-37.888 149.504-94.72 7.68 20.992 18.944 40.448 37.376 55.296 34.304 27.648 78.848 32.768 120.32 42.496 45.056 10.24 87.04 29.696 125.952 54.784z m-481.28 32.256c14.848 0 14.848-23.04 0-23.552-50.176-1.024-82.432 37.376-108.032 75.776-8.192 12.8 12.288 24.576 20.48 11.776 20.48-31.232 46.592-64.512 87.552-64z" fill="#E96195" /><path d="M581.632 810.496c-7.168 28.16-15.36 55.808-24.576 83.456-4.608 14.336-9.728 28.16-15.36 41.984-2.56 6.656-4.608 14.336-8.192 20.992-7.168 12.288-10.752 9.216-23.04 8.704-18.944-0.512-18.944-2.56-23.552-21.504-3.584-14.336-7.168-28.672-10.24-43.52-6.144-28.672-11.264-57.856-15.872-87.04 39.936 2.048 80.384 0.512 120.832-3.072z" fill="#056137" /><path d="M318.976 267.264c14.848 0 14.848 23.552 0 23.552-41.472-0.512-67.072 32.768-87.552 64-8.192 12.8-28.672 1.024-20.48-11.776 25.6-38.912 58.368-76.8 108.032-75.776z" fill="#66A771" /></svg>