<svg xmlns="http://www.w3.org/2000/svg" viewBox="0 0 512 512">
  <rect width="512" height="512" rx="114" fill="#2d3d2d"/>
  <!-- Body -->
  <ellipse cx="256" cy="360" rx="120" ry="110" fill="#f0ece0"/>
  <!-- Tummy -->
  <ellipse cx="256" cy="370" rx="70" ry="80" fill="#fdf9f0" opacity="0.8"/>
  <!-- Head -->
  <ellipse cx="256" cy="220" rx="110" ry="105" fill="#f0ece0"/>
  <!-- Ears -->
  <circle cx="160" cy="130" r="48" fill="#1a261a"/>
  <circle cx="160" cy="130" r="30" fill="#2d3d2d"/>
  <circle cx="352" cy="130" r="48" fill="#1a261a"/>
  <circle cx="352" cy="130" r="30" fill="#2d3d2d"/>
  <!-- Eye patches -->
  <ellipse cx="220" cy="215" rx="38" ry="34" fill="#1a261a" transform="rotate(-10 220 215)"/>
  <ellipse cx="292" cy="215" rx="38" ry="34" fill="#1a261a" transform="rotate(10 292 215)"/>
  <!-- Eyes -->
  <ellipse cx="220" cy="216" rx="20" ry="18" fill="#fdf9f0"/>
  <ellipse cx="292" cy="216" rx="20" ry="18" fill="#fdf9f0"/>
  <ellipse cx="222" cy="218" rx="13" ry="12" fill="#1a1a2a"/>
  <ellipse cx="294" cy="218" rx="13" ry="12" fill="#1a1a2a"/>
  <circle cx="227" cy="213" r="5" fill="white"/>
  <circle cx="299" cy="213" r="5" fill="white"/>
  <!-- Nose -->
  <ellipse cx="256" cy="238" rx="11" ry="7" fill="#1a261a" opacity="0.7"/>
  <!-- Mouth -->
  <path d="M238 252 Q248 262 256 256 Q264 262 274 252" fill="none" stroke="#1a261a" stroke-width="4" stroke-linecap="round" stroke-linejoin="round"/>
  <!-- Blush -->
  <ellipse cx="188" cy="240" rx="22" ry="14" fill="#f0907a" opacity="0.35"/>
  <ellipse cx="324" cy="240" rx="22" ry="14" fill="#f0907a" opacity="0.35"/>
  <!-- Heart -->
  <path d="M256 310 C256 302 262 298 268 304 C274 298 280 302 280 310 C280 320 268 330 268 330 C268 330 256 320 256 310Z" fill="#e8607a" opacity="0.9"/>
</svg>
